<mxfile host="app.diagrams.net" modified="2024-06-09T12:56:56.836Z" agent="Mozilla/5.0 (Windows NT 10.0; Win64; x64; rv:126.0) Gecko/20100101 Firefox/126.0" etag="UvuJB1iDjyqhgTlsCd9h" version="24.4.13" type="github">
  <diagram name="第 1 页" id="k-isXZ9afNYRydHMafHK">
    <mxGraphModel dx="1221" dy="733" grid="0" gridSize="10" guides="1" tooltips="1" connect="1" arrows="1" fold="1" page="1" pageScale="1" pageWidth="1027" pageHeight="390" math="0" shadow="0">
      <root>
        <mxCell id="0" />
        <mxCell id="1" parent="0" />
        <mxCell id="dfWSqd4jgpDx-fsTKVpj-1" value="&lt;font style=&quot;font-size: 16px;&quot; data-font-src=&quot;https://fonts.googleapis.com/css?family=%E5%AE%8B%E4%BD%93&quot; face=&quot;宋体&quot;&gt;规则文件配置存储&lt;br&gt;&lt;/font&gt;" style="rounded=0;whiteSpace=wrap;html=1;fillColor=#dae8fc;strokeColor=#6c8ebf;" vertex="1" parent="1">
          <mxGeometry x="179" y="53" width="174" height="67" as="geometry" />
        </mxCell>
        <mxCell id="dfWSqd4jgpDx-fsTKVpj-2" value="&lt;font style=&quot;font-size: 16px;&quot; face=&quot;宋体&quot;&gt;FlowParser&lt;/font&gt;" style="rounded=0;whiteSpace=wrap;html=1;fillColor=#f8cecc;strokeColor=#b85450;" vertex="1" parent="1">
          <mxGeometry x="179" y="233" width="174" height="67" as="geometry" />
        </mxCell>
        <mxCell id="dfWSqd4jgpDx-fsTKVpj-3" value="&lt;font style=&quot;font-size: 16px;&quot; face=&quot;宋体&quot;&gt;Node&lt;/font&gt;" style="rounded=0;whiteSpace=wrap;html=1;fillColor=#e1d5e7;strokeColor=#9673a6;" vertex="1" parent="1">
          <mxGeometry x="464" y="139" width="174" height="67" as="geometry" />
        </mxCell>
        <mxCell id="dfWSqd4jgpDx-fsTKVpj-4" value="&lt;font style=&quot;font-size: 16px;&quot; data-font-src=&quot;https://fonts.googleapis.com/css?family=%E5%AE%8B%E4%BD%93&quot; face=&quot;宋体&quot;&gt;Chain&lt;/font&gt;" style="rounded=0;whiteSpace=wrap;html=1;fillColor=#e1d5e7;strokeColor=#9673a6;" vertex="1" parent="1">
          <mxGeometry x="464" y="317" width="174" height="67" as="geometry" />
        </mxCell>
        <mxCell id="dfWSqd4jgpDx-fsTKVpj-5" value="" style="endArrow=classic;html=1;rounded=0;exitX=0.5;exitY=1;exitDx=0;exitDy=0;entryX=0.5;entryY=0;entryDx=0;entryDy=0;" edge="1" parent="1" source="dfWSqd4jgpDx-fsTKVpj-1" target="dfWSqd4jgpDx-fsTKVpj-2">
          <mxGeometry width="50" height="50" relative="1" as="geometry">
            <mxPoint x="488" y="328" as="sourcePoint" />
            <mxPoint x="538" y="278" as="targetPoint" />
          </mxGeometry>
        </mxCell>
        <mxCell id="dfWSqd4jgpDx-fsTKVpj-6" value="&lt;font style=&quot;font-size: 16px;&quot; face=&quot;宋体&quot;&gt;解析&lt;/font&gt;" style="text;strokeColor=none;align=center;fillColor=none;html=1;verticalAlign=middle;whiteSpace=wrap;rounded=0;" vertex="1" parent="1">
          <mxGeometry x="356" y="212" width="75" height="30" as="geometry" />
        </mxCell>
        <mxCell id="dfWSqd4jgpDx-fsTKVpj-8" value="" style="endArrow=none;html=1;rounded=0;" edge="1" parent="1">
          <mxGeometry width="50" height="50" relative="1" as="geometry">
            <mxPoint x="354" y="267" as="sourcePoint" />
            <mxPoint x="411" y="267" as="targetPoint" />
          </mxGeometry>
        </mxCell>
        <mxCell id="dfWSqd4jgpDx-fsTKVpj-10" value="" style="endArrow=none;html=1;rounded=0;" edge="1" parent="1">
          <mxGeometry width="50" height="50" relative="1" as="geometry">
            <mxPoint x="411" y="268" as="sourcePoint" />
            <mxPoint x="411" y="179" as="targetPoint" />
          </mxGeometry>
        </mxCell>
        <mxCell id="dfWSqd4jgpDx-fsTKVpj-11" value="" style="endArrow=classic;html=1;rounded=0;" edge="1" parent="1">
          <mxGeometry width="50" height="50" relative="1" as="geometry">
            <mxPoint x="411" y="179" as="sourcePoint" />
            <mxPoint x="463" y="178.8129496402878" as="targetPoint" />
          </mxGeometry>
        </mxCell>
        <mxCell id="dfWSqd4jgpDx-fsTKVpj-12" value="" style="endArrow=none;html=1;rounded=0;" edge="1" parent="1">
          <mxGeometry width="50" height="50" relative="1" as="geometry">
            <mxPoint x="411" y="356" as="sourcePoint" />
            <mxPoint x="411" y="267" as="targetPoint" />
          </mxGeometry>
        </mxCell>
        <mxCell id="dfWSqd4jgpDx-fsTKVpj-13" value="" style="endArrow=classic;html=1;rounded=0;" edge="1" parent="1">
          <mxGeometry width="50" height="50" relative="1" as="geometry">
            <mxPoint x="411" y="356.19" as="sourcePoint" />
            <mxPoint x="463" y="356.0029496402878" as="targetPoint" />
          </mxGeometry>
        </mxCell>
        <mxCell id="dfWSqd4jgpDx-fsTKVpj-14" value="&lt;font style=&quot;font-size: 16px;&quot;&gt;&lt;font data-font-src=&quot;https://fonts.googleapis.com/css?family=%E5%AE%8B%E4%BD%93&quot; face=&quot;宋体&quot;&gt;拉取规则&lt;/font&gt;&lt;br&gt;&lt;/font&gt;" style="text;strokeColor=none;align=center;fillColor=none;html=1;verticalAlign=middle;whiteSpace=wrap;rounded=0;" vertex="1" parent="1">
          <mxGeometry x="275" y="160" width="75" height="30" as="geometry" />
        </mxCell>
        <mxCell id="dfWSqd4jgpDx-fsTKVpj-16" value="&lt;font style=&quot;font-size: 16px;&quot; face=&quot;宋体&quot;&gt;解析&lt;/font&gt;" style="text;strokeColor=none;align=center;fillColor=none;html=1;verticalAlign=middle;whiteSpace=wrap;rounded=0;" vertex="1" parent="1">
          <mxGeometry x="356" y="287" width="75" height="30" as="geometry" />
        </mxCell>
      </root>
    </mxGraphModel>
  </diagram>
</mxfile>
